<svg width="1920" height="666" viewBox="0 0 1920 666" fill="none" xmlns="http://www.w3.org/2000/svg">
<path d="M1920 177L0 177L7.81451e-09 537H1920L1920 177Z" fill="#FF0000"/>
<path d="M963.935 504.58C966.302 503.784 967.573 501.217 966.776 498.846C965.978 496.476 963.414 495.199 961.047 495.995C958.681 496.791 957.409 499.358 958.207 501.729C959.004 504.1 961.569 505.376 963.935 504.58Z" fill="#32BEF0"/>
<path d="M998.937 481.974C1001.3 481.178 1002.58 478.611 1001.78 476.24C1000.98 473.869 998.415 472.593 996.049 473.389C993.683 474.185 992.411 476.752 993.209 479.123C994.006 481.493 996.571 482.77 998.937 481.974Z" fill="#32BEF0"/>
<path d="M1010.72 529.295C1013.09 528.499 1014.36 525.932 1013.56 523.561C1012.77 521.191 1010.2 519.914 1007.84 520.71C1005.47 521.506 1004.2 524.074 1005 526.444C1005.79 528.815 1008.36 530.091 1010.72 529.295Z" fill="#32BEF0"/>
<path d="M1064.21 418.921C1066.58 418.125 1067.85 415.558 1067.05 413.187C1066.25 410.816 1063.69 409.54 1061.32 410.336C1058.96 411.132 1057.68 413.699 1058.48 416.07C1059.28 418.44 1061.84 419.717 1064.21 418.921Z" fill="#32BEF0"/>
<path d="M978.39 522.971C980.756 522.175 982.028 519.608 981.23 517.237C980.433 514.867 977.868 513.59 975.502 514.386C973.136 515.183 971.864 517.75 972.661 520.12C973.459 522.491 976.024 523.767 978.39 522.971Z" fill="#32BEF0"/>
<path d="M971.259 528.238C973.625 527.442 974.897 524.874 974.099 522.504C973.302 520.133 970.737 518.857 968.37 519.653C966.004 520.449 964.732 523.016 965.53 525.387C966.328 527.757 968.892 529.034 971.259 528.238Z" fill="#32BEF0"/>
<path d="M1000 544.688C1002.37 543.892 1003.64 541.325 1002.84 538.954C1002.05 536.583 999.482 535.307 997.116 536.103C994.75 536.899 993.478 539.466 994.276 541.837C995.073 544.208 997.638 545.484 1000 544.688Z" fill="#32BEF0"/>
<path d="M995.181 527.516C997.548 526.72 998.82 524.153 998.022 521.782C997.224 519.411 994.66 518.135 992.293 518.931C989.927 519.727 988.655 522.294 989.453 524.665C990.25 527.036 992.815 528.312 995.181 527.516Z" fill="#32BEF0"/>
<path d="M1026.21 542.243C1028.58 541.447 1029.85 538.88 1029.05 536.509C1028.25 534.139 1025.69 532.862 1023.32 533.658C1020.95 534.454 1019.68 537.022 1020.48 539.392C1021.28 541.763 1023.84 543.039 1026.21 542.243Z" fill="#32BEF0"/>
<path d="M1220 373.517C1222.37 372.721 1223.64 370.154 1222.84 367.783C1222.04 365.413 1219.48 364.136 1217.11 364.932C1214.75 365.728 1213.48 368.296 1214.27 370.666C1215.07 373.037 1217.64 374.313 1220 373.517Z" fill="#32BEF0"/>
<path d="M1026.66 504.822C1029.02 504.026 1030.29 501.459 1029.5 499.088C1028.7 496.718 1026.13 495.441 1023.77 496.237C1021.4 497.033 1020.13 499.601 1020.93 501.971C1021.73 504.342 1024.29 505.618 1026.66 504.822Z" fill="#32BEF0"/>
<path d="M1043.56 514.426C1045.93 513.63 1047.2 511.063 1046.4 508.692C1045.6 506.321 1043.04 505.045 1040.67 505.841C1038.3 506.637 1037.03 509.204 1037.83 511.575C1038.63 513.946 1041.19 515.222 1043.56 514.426Z" fill="#32BEF0"/>
<path d="M1182 383.434C1184.37 382.638 1185.64 380.071 1184.84 377.7C1184.05 375.33 1181.48 374.053 1179.11 374.849C1176.75 375.645 1175.48 378.212 1176.27 380.583C1177.07 382.954 1179.64 384.23 1182 383.434Z" fill="#32BEF0"/>
<path d="M1281.44 331.188C1283.8 330.392 1285.07 327.824 1284.28 325.454C1283.48 323.083 1280.91 321.807 1278.55 322.603C1276.18 323.399 1274.91 325.966 1275.71 328.337C1276.5 330.707 1279.07 331.984 1281.44 331.188Z" fill="#32BEF0"/>
<path d="M1050.03 510.975C1052.4 510.179 1053.67 507.612 1052.87 505.241C1052.07 502.87 1049.51 501.594 1047.14 502.39C1044.78 503.186 1043.5 505.753 1044.3 508.124C1045.1 510.495 1047.66 511.771 1050.03 510.975Z" fill="#32BEF0"/>
<path d="M1073.14 495.555C1075.51 494.759 1076.78 492.191 1075.98 489.821C1075.18 487.45 1072.62 486.174 1070.25 486.97C1067.89 487.766 1066.61 490.333 1067.41 492.704C1068.21 495.074 1070.77 496.351 1073.14 495.555Z" fill="#32BEF0"/>
<path d="M1052.16 462.477C1054.52 461.681 1055.79 459.114 1055 456.743C1054.2 454.373 1051.63 453.096 1049.27 453.892C1046.9 454.688 1045.63 457.255 1046.43 459.626C1047.22 461.997 1049.79 463.273 1052.16 462.477Z" fill="#32BEF0"/>
<path d="M1075.72 526.859C1078.09 526.063 1079.36 523.496 1078.56 521.126C1077.77 518.755 1075.2 517.478 1072.84 518.275C1070.47 519.071 1069.2 521.638 1069.99 524.008C1070.79 526.379 1073.36 527.655 1075.72 526.859Z" fill="#32BEF0"/>
<path d="M1066.81 313.242C1069.18 312.446 1070.45 309.878 1069.65 307.508C1068.86 305.137 1066.29 303.861 1063.93 304.657C1061.56 305.453 1060.29 308.02 1061.09 310.391C1061.88 312.761 1064.45 314.038 1066.81 313.242Z" fill="#32BEF0"/>
<path d="M1139.58 496.457C1141.95 495.661 1143.22 493.093 1142.42 490.723C1141.62 488.352 1139.06 487.076 1136.69 487.872C1134.33 488.668 1133.05 491.235 1133.85 493.606C1134.65 495.976 1137.21 497.253 1139.58 496.457Z" fill="#32BEF0"/>
<path d="M1163.32 382.712C1165.68 381.916 1166.96 379.349 1166.16 376.978C1165.36 374.608 1162.8 373.331 1160.43 374.127C1158.06 374.923 1156.79 377.49 1157.59 379.861C1158.39 382.232 1160.95 383.508 1163.32 382.712Z" fill="#32BEF0"/>
<path d="M1190.17 432.291C1192.54 431.495 1193.81 428.928 1193.01 426.557C1192.21 424.187 1189.65 422.91 1187.28 423.706C1184.92 424.502 1183.65 427.069 1184.44 429.44C1185.24 431.811 1187.81 433.087 1190.17 432.291Z" fill="#32BEF0"/>
<path d="M1178.64 317.67C1181 316.874 1182.28 314.307 1181.48 311.936C1180.68 309.566 1178.12 308.289 1175.75 309.085C1173.38 309.881 1172.11 312.448 1172.91 314.819C1173.71 317.19 1176.27 318.466 1178.64 317.67Z" fill="#32BEF0"/>
<path d="M1037.55 426.617C1039.91 425.821 1041.19 423.254 1040.39 420.883C1039.59 418.512 1037.03 417.236 1034.66 418.032C1032.29 418.828 1031.02 421.395 1031.82 423.766C1032.62 426.136 1035.18 427.413 1037.55 426.617Z" fill="#32BEF0"/>
<path d="M1045.28 487.407C1047.65 486.611 1048.92 484.044 1048.12 481.673C1047.32 479.303 1044.76 478.026 1042.39 478.822C1040.03 479.618 1038.75 482.185 1039.55 484.556C1040.35 486.927 1042.91 488.203 1045.28 487.407Z" fill="#32BEF0"/>
<path d="M963.735 444.441C966.101 443.645 967.373 441.078 966.576 438.707C965.778 436.337 963.213 435.06 960.847 435.856C958.481 436.652 957.209 439.219 958.007 441.59C958.804 443.961 961.369 445.237 963.735 444.441Z" fill="#32BEF0"/>
<path d="M1201.6 286.69C1203.97 285.894 1205.24 283.327 1204.44 280.957C1203.64 278.586 1201.08 277.309 1198.71 278.106C1196.35 278.902 1195.07 281.469 1195.87 283.839C1196.67 286.21 1199.23 287.486 1201.6 286.69Z" fill="#32BEF0"/>
<path d="M1142.18 446.526C1144.54 445.73 1145.82 443.163 1145.02 440.792C1144.22 438.421 1141.66 437.145 1139.29 437.941C1136.92 438.737 1135.65 441.304 1136.45 443.675C1137.25 446.045 1139.81 447.322 1142.18 446.526Z" fill="#32BEF0"/>
<path d="M1250.45 270.258C1252.81 269.462 1254.08 266.895 1253.29 264.524C1252.49 262.154 1249.92 260.877 1247.56 261.673C1245.19 262.469 1243.92 265.036 1244.72 267.407C1245.51 269.778 1248.08 271.054 1250.45 270.258Z" fill="#32BEF0"/>
<path d="M982.41 470.651C984.776 469.855 986.048 467.287 985.25 464.917C984.453 462.546 981.888 461.27 979.522 462.066C977.156 462.862 975.884 465.429 976.681 467.8C977.479 470.17 980.044 471.447 982.41 470.651Z" fill="#32BEF0"/>
<path d="M963.287 481.862C965.654 481.066 966.925 478.499 966.128 476.128C965.33 473.758 962.766 472.481 960.399 473.277C958.033 474.073 956.761 476.641 957.559 479.011C958.356 481.382 960.921 482.658 963.287 481.862Z" fill="#32BEF0"/>
<path d="M1000.35 504.117C1002.71 503.321 1003.98 500.754 1003.19 498.383C1002.39 496.013 999.824 494.736 997.457 495.532C995.091 496.328 993.819 498.895 994.617 501.266C995.414 503.637 997.979 504.913 1000.35 504.117Z" fill="#32BEF0"/>
<path d="M1013.26 516.975C1015.62 516.179 1016.89 513.612 1016.1 511.242C1015.3 508.871 1012.73 507.595 1010.37 508.391C1008 509.187 1006.73 511.754 1007.53 514.124C1008.33 516.495 1010.89 517.772 1013.26 516.975Z" fill="#32BEF0"/>
<path d="M1020.49 485.553C1022.86 484.757 1024.13 482.19 1023.33 479.819C1022.53 477.449 1019.97 476.172 1017.6 476.968C1015.24 477.764 1013.97 480.331 1014.76 482.702C1015.56 485.073 1018.13 486.349 1020.49 485.553Z" fill="#32BEF0"/>
<path d="M975.56 503.218C977.926 502.422 979.198 499.854 978.4 497.484C977.603 495.113 975.038 493.837 972.672 494.633C970.305 495.429 969.034 497.996 969.831 500.367C970.629 502.737 973.194 504.014 975.56 503.218Z" fill="#32BEF0"/>
<path d="M1022.19 452.807C1024.56 452.011 1025.83 449.444 1025.03 447.073C1024.24 444.702 1021.67 443.426 1019.31 444.222C1016.94 445.018 1015.67 447.585 1016.46 449.956C1017.26 452.326 1019.83 453.603 1022.19 452.807Z" fill="#32BEF0"/>
<path d="M992.312 524.659C994.679 523.863 995.95 521.295 995.153 518.925C994.355 516.554 991.79 515.278 989.424 516.074C987.058 516.87 985.786 519.437 986.584 521.808C987.381 524.178 989.946 525.455 992.312 524.659Z" fill="#32BEF0"/>
<path d="M1183.75 249.692C1186.11 248.896 1187.39 246.329 1186.59 243.958C1185.79 241.588 1183.23 240.311 1180.86 241.107C1178.49 241.903 1177.22 244.47 1178.02 246.841C1178.82 249.212 1181.38 250.488 1183.75 249.692Z" fill="#32BEF0"/>
<path d="M1357.48 440.987C1359.85 440.191 1361.12 437.624 1360.33 435.253C1359.53 432.883 1356.96 431.606 1354.6 432.402C1352.23 433.198 1350.96 435.766 1351.76 438.136C1352.55 440.507 1355.12 441.783 1357.48 440.987Z" fill="#32BEF0"/>
<path d="M1080.72 452.868C1083.09 452.072 1084.36 449.504 1083.56 447.134C1082.76 444.763 1080.2 443.487 1077.83 444.283C1075.46 445.079 1074.19 447.646 1074.99 450.017C1075.79 452.387 1078.35 453.664 1080.72 452.868Z" fill="#32BEF0"/>
<path d="M1098.92 508.862C1101.29 508.065 1102.56 505.498 1101.76 503.128C1100.96 500.757 1098.4 499.481 1096.03 500.277C1093.67 501.073 1092.39 503.64 1093.19 506.011C1093.99 508.381 1096.55 509.658 1098.92 508.862Z" fill="#32BEF0"/>
<path d="M998.403 435.963C1000.77 435.167 1002.04 432.6 1001.24 430.23C1000.45 427.859 997.881 426.583 995.515 427.379C993.149 428.175 991.877 430.742 992.675 433.112C993.472 435.483 996.037 436.76 998.403 435.963Z" fill="#32BEF0"/>
<path d="M1040.77 391.767C1043.13 390.971 1044.41 388.404 1043.61 386.033C1042.81 383.663 1040.25 382.386 1037.88 383.182C1035.51 383.978 1034.24 386.545 1035.04 388.916C1035.84 391.287 1038.4 392.563 1040.77 391.767Z" fill="#32BEF0"/>
<path d="M1041.84 342.985C1044.21 342.189 1045.48 339.622 1044.69 337.251C1043.89 334.88 1041.32 333.604 1038.96 334.4C1036.59 335.196 1035.32 337.763 1036.12 340.134C1036.91 342.505 1039.48 343.781 1041.84 342.985Z" fill="#32BEF0"/>
<path d="M1108.14 385.031C1110.5 384.235 1111.77 381.667 1110.98 379.297C1110.18 376.926 1107.61 375.65 1105.25 376.446C1102.88 377.242 1101.61 379.809 1102.41 382.18C1103.2 384.55 1105.77 385.827 1108.14 385.031Z" fill="#32BEF0"/>
<path d="M1269.21 379.899C1271.57 379.103 1272.84 376.536 1272.05 374.165C1271.25 371.794 1268.68 370.518 1266.32 371.314C1263.95 372.11 1262.68 374.677 1263.48 377.048C1264.28 379.419 1266.84 380.695 1269.21 379.899Z" fill="#32BEF0"/>
<path d="M1115.72 343.298C1118.08 342.502 1119.36 339.935 1118.56 337.564C1117.76 335.193 1115.2 333.917 1112.83 334.713C1110.46 335.509 1109.19 338.076 1109.99 340.447C1110.79 342.818 1113.35 344.094 1115.72 343.298Z" fill="#32BEF0"/>
<path d="M1051.43 215.526C1053.79 214.73 1055.07 212.162 1054.27 209.792C1053.47 207.421 1050.91 206.145 1048.54 206.941C1046.17 207.737 1044.9 210.304 1045.7 212.675C1046.5 215.045 1049.06 216.322 1051.43 215.526Z" fill="#32BEF0"/>
<path d="M962.567 94.1085C964.934 93.3124 966.205 90.7453 965.408 88.3747C964.61 86.004 962.045 84.7276 959.679 85.5236C957.313 86.3197 956.041 88.8869 956.839 91.2575C957.636 93.6282 960.201 94.9046 962.567 94.1085Z" fill="#32BEF0"/>
<path d="M1165.52 156.755C1167.88 155.959 1169.16 153.392 1168.36 151.021C1167.56 148.651 1165 147.374 1162.63 148.17C1160.26 148.967 1158.99 151.534 1159.79 153.904C1160.59 156.275 1163.15 157.551 1165.52 156.755Z" fill="#32BEF0"/>
<path d="M1079.68 368.484C1082.04 367.688 1083.31 365.121 1082.52 362.75C1081.72 360.379 1079.15 359.103 1076.79 359.899C1074.42 360.695 1073.15 363.262 1073.95 365.633C1074.74 368.004 1077.31 369.28 1079.68 368.484Z" fill="#32BEF0"/>
<path d="M883.256 284.956C883.256 284.956 885.553 291.629 868.557 314.408C851.561 336.958 844.212 340.179 840.077 340.639C836.173 340.869 838.699 322.462 838.699 321.541C838.929 320.391 869.705 282.885 869.705 282.885L878.892 280.584L883.256 284.956Z" fill="#005CA9"/>
<path d="M878.892 285.646C879.121 285.646 879.351 285.416 879.581 285.416C879.81 285.416 880.04 285.186 880.27 285.186C880.5 285.186 880.729 285.186 880.729 285.186C880.959 285.186 880.959 285.186 881.189 285.186C881.418 285.186 881.418 285.186 881.648 285.186C881.878 285.186 881.878 285.186 881.878 285.416L879.351 283.575C879.581 283.575 879.581 283.345 879.81 283.345C880.04 283.115 880.27 283.115 880.729 282.885C880.959 282.885 881.189 282.655 881.418 282.655C881.648 282.655 881.878 282.425 882.107 282.425C882.337 282.425 882.567 282.425 882.796 282.425C883.026 282.425 883.256 282.425 883.256 282.425C883.485 282.425 883.485 282.425 883.715 282.655C883.945 282.655 883.945 282.885 884.174 282.885L868.786 271.15C868.786 271.15 868.557 271.15 868.557 270.92L868.327 270.69H868.097C868.097 270.69 867.868 270.69 867.868 270.46H867.638H867.408H867.178C867.178 270.46 867.178 270.46 866.949 270.46C866.949 270.46 866.949 270.46 866.719 270.46H866.489H866.26H866.03C865.8 270.46 865.571 270.46 865.341 270.46C864.652 270.46 863.733 270.69 862.585 271.15H862.355C860.748 271.84 859.14 272.761 857.073 274.141C856.614 274.371 856.154 274.832 855.925 275.062C854.546 276.212 853.168 277.363 851.561 278.973C849.494 281.044 847.197 283.345 845.13 285.646C842.833 288.177 840.766 290.708 838.929 293.239C838.469 293.93 838.01 294.62 837.321 295.31C837.091 295.54 837.091 295.77 836.862 296.001C836.632 296.461 836.173 296.691 835.943 297.151C834.795 298.992 833.417 300.602 832.498 302.443C832.268 302.903 831.809 303.364 831.579 303.824C831.35 304.054 831.35 304.284 831.12 304.514C830.89 304.744 830.661 305.204 830.431 305.435V305.665C830.431 305.895 830.201 305.895 830.201 306.125C829.971 306.355 829.971 306.585 829.742 306.815C829.512 307.045 829.512 307.275 829.282 307.505C827.675 310.497 826.297 313.258 825.378 315.789V316.019C825.148 316.479 825.148 316.939 824.919 317.4C824.919 317.63 824.919 317.86 824.689 317.86C824.689 318.32 824.459 318.55 824.459 319.01C824.459 319.24 824.459 319.47 824.23 319.701C824.23 319.931 824.23 320.161 824 320.621C824 320.851 824 321.311 824 321.541V321.771C824 322.002 824 322.002 824 322.232C824 322.462 824 322.692 824 322.922C824 323.152 824 323.152 824 323.382C824 323.612 824 323.612 824 323.842C824 324.072 824 324.302 824 324.533C824 324.763 824 324.763 824 324.993C824 325.223 824 325.453 824.23 325.453V325.683V325.913C824.23 325.913 824.23 326.143 824.459 326.373C824.459 326.373 824.459 326.373 824.459 326.603C824.459 326.834 824.689 326.834 824.689 327.064C824.689 327.064 824.689 327.064 824.689 327.294C824.689 327.294 824.689 327.294 824.689 327.524V327.754V327.984L824.919 328.214L825.148 328.444C825.148 328.444 825.148 328.674 825.378 328.674C825.378 328.674 825.378 328.674 825.608 328.904L825.837 329.135C826.067 329.365 826.067 329.365 826.297 329.595L841.685 341.33C841.455 341.33 841.455 341.1 841.225 340.869V340.639C841.225 340.409 840.996 340.409 840.996 340.179V339.949C840.996 339.719 840.996 339.719 840.996 339.489V339.259C840.996 339.029 840.996 338.799 840.996 338.799C840.996 338.569 840.996 338.569 840.996 338.338C840.996 338.108 840.996 337.878 840.996 337.648C840.996 337.418 840.996 337.418 840.996 337.188C840.996 336.958 840.996 336.728 841.225 336.498C841.455 336.728 841.685 336.958 841.914 337.188L843.522 338.569C843.293 338.569 843.293 338.338 843.293 338.108C843.293 338.108 843.293 338.108 843.293 337.878C843.293 337.878 843.293 337.648 843.063 337.418V337.188C843.063 336.958 843.063 336.958 843.063 336.728V336.498C843.063 336.268 843.063 336.268 843.063 336.037C843.063 335.807 843.063 335.807 843.063 335.577C843.063 335.347 843.063 335.117 843.063 334.887C843.063 334.657 843.063 334.657 843.063 334.427C843.063 334.197 843.063 333.967 843.293 333.736C843.293 333.506 843.293 333.506 843.293 333.276C843.293 333.046 843.522 332.586 843.522 332.356V332.126C843.752 331.666 843.752 331.205 843.982 330.745C844.211 330.285 844.211 330.055 844.441 329.595C844.671 329.135 844.9 328.674 845.13 328.214C845.36 327.754 845.589 327.294 845.819 326.603C846.049 326.143 846.278 325.453 846.738 324.993C846.967 324.533 847.427 323.842 847.656 323.382C847.886 322.922 848.345 322.232 848.575 321.541C849.034 320.851 849.264 320.391 849.723 319.701C850.872 317.86 852.02 316.249 853.168 314.408C854.317 312.568 855.695 310.957 856.843 309.116C857.532 308.196 858.221 307.275 858.91 306.585C859.599 305.665 860.288 304.974 860.977 304.054C862.355 302.443 863.733 300.833 865.111 299.222C865.8 298.532 866.489 297.841 867.178 296.921C867.868 296.231 868.327 295.77 868.786 295.08C869.016 294.85 869.016 294.85 869.246 294.62C869.705 294.16 870.164 293.7 870.624 293.239C870.853 293.009 870.853 293.009 871.083 292.779C871.772 292.319 872.231 291.629 872.92 291.169C873.609 290.708 874.069 290.018 874.758 289.558C875.447 289.098 875.906 288.637 876.365 288.177C876.825 287.717 877.514 287.257 877.973 287.027C878.432 286.567 878.892 286.336 879.581 286.106C879.81 285.876 880.04 285.876 880.27 285.646C878.203 285.876 878.662 285.646 878.892 285.646ZM867.408 270C867.179 270 867.179 270 867.408 270C867.179 270 867.408 270 867.408 270Z" fill="#32BEF0"/>
<path d="M876.825 302.903C867.179 318.55 852.479 335.117 843.982 340.179C835.484 345.241 836.402 336.498 846.049 321.081C855.695 305.665 870.394 288.868 878.892 283.805C887.39 278.743 886.471 287.487 876.825 302.903ZM875.217 303.824C883.945 289.788 884.863 281.965 877.054 286.336C869.246 290.708 855.925 306.125 847.197 320.161C838.469 334.197 837.551 342.02 845.36 337.648C853.168 333.046 866.49 317.86 875.217 303.824Z" fill="#32BEF0"/>
<path d="M582.586 538.19C585.154 538.19 587.236 536.105 587.236 533.532C587.236 530.959 585.154 528.874 582.586 528.874C580.018 528.874 577.936 530.959 577.936 533.532C577.936 536.105 580.018 538.19 582.586 538.19Z" fill="#32BEF0"/>
<path d="M564.916 499.06C567.484 499.06 569.566 496.974 569.566 494.401C569.566 491.828 567.484 489.743 564.916 489.743C562.348 489.743 560.267 491.828 560.267 494.401C560.267 496.974 562.348 499.06 564.916 499.06Z" fill="#32BEF0"/>
<path d="M594.366 485.705C596.934 485.705 599.016 483.62 599.016 481.047C599.016 478.474 596.934 476.388 594.366 476.388C591.798 476.388 589.716 478.474 589.716 481.047C589.716 483.62 591.798 485.705 594.366 485.705Z" fill="#32BEF0"/>
<path d="M591.886 517.383C594.454 517.383 596.536 515.297 596.536 512.724C596.536 510.152 594.454 508.066 591.886 508.066C589.318 508.066 587.236 510.152 587.236 512.724C587.236 515.297 589.318 517.383 591.886 517.383Z" fill="#32BEF0"/>
<path d="M610.795 509.929C613.363 509.929 615.445 507.844 615.445 505.271C615.445 502.698 613.363 500.612 610.795 500.612C608.227 500.612 606.146 502.698 606.146 505.271C606.146 507.844 608.227 509.929 610.795 509.929Z" fill="#32BEF0"/>
<path d="M542.288 565.83C544.856 565.83 546.937 563.745 546.937 561.172C546.937 558.599 544.856 556.514 542.288 556.514C539.72 556.514 537.638 558.599 537.638 561.172C537.638 563.745 539.72 565.83 542.288 565.83Z" fill="#32BEF0"/>
<path d="M453.94 523.904C456.508 523.904 458.59 521.819 458.59 519.246C458.59 516.673 456.508 514.588 453.94 514.588C451.372 514.588 449.291 516.673 449.291 519.246C449.291 521.819 451.372 523.904 453.94 523.904Z" fill="#32BEF0"/>
<path d="M631.254 479.494C633.822 479.494 635.904 477.408 635.904 474.836C635.904 472.263 633.822 470.177 631.254 470.177C628.686 470.177 626.604 472.263 626.604 474.836C626.604 477.408 628.686 479.494 631.254 479.494Z" fill="#32BEF0"/>
<path d="M646.754 480.115C649.322 480.115 651.404 478.03 651.404 475.457C651.404 472.884 649.322 470.798 646.754 470.798C644.186 470.798 642.104 472.884 642.104 475.457C642.104 478.03 644.186 480.115 646.754 480.115Z" fill="#32BEF0"/>
<path d="M639.934 446.264C642.502 446.264 644.584 444.178 644.584 441.605C644.584 439.033 642.502 436.947 639.934 436.947C637.366 436.947 635.284 439.033 635.284 441.605C635.284 444.178 637.366 446.264 639.934 446.264Z" fill="#32BEF0"/>
<path d="M602.425 451.544C604.993 451.544 607.075 449.458 607.075 446.885C607.075 444.312 604.993 442.227 602.425 442.227C599.857 442.227 597.775 444.312 597.775 446.885C597.775 449.458 599.857 451.544 602.425 451.544Z" fill="#32BEF0"/>
<path d="M622.265 427.63C624.833 427.63 626.914 425.545 626.914 422.972C626.914 420.399 624.833 418.313 622.265 418.313C619.697 418.313 617.615 420.399 617.615 422.972C617.615 425.545 619.697 427.63 622.265 427.63Z" fill="#32BEF0"/>
<path d="M601.496 358.064C604.064 358.064 606.145 355.979 606.145 353.406C606.145 350.833 604.064 348.747 601.496 348.747C598.928 348.747 596.846 350.833 596.846 353.406C596.846 355.979 598.928 358.064 601.496 358.064Z" fill="#32BEF0"/>
<path d="M645.824 326.076C648.392 326.076 650.474 323.991 650.474 321.418C650.474 318.845 648.392 316.759 645.824 316.759C643.256 316.759 641.174 318.845 641.174 321.418C641.174 323.991 643.256 326.076 645.824 326.076Z" fill="#32BEF0"/>
<path d="M611.725 486.016C614.293 486.016 616.374 483.93 616.374 481.358C616.374 478.785 614.293 476.699 611.725 476.699C609.157 476.699 607.075 478.785 607.075 481.358C607.075 483.93 609.157 486.016 611.725 486.016Z" fill="#32BEF0"/>
<path d="M629.084 516.141C631.652 516.141 633.734 514.055 633.734 511.482C633.734 508.909 631.652 506.824 629.084 506.824C626.516 506.824 624.435 508.909 624.435 511.482C624.435 514.055 626.516 516.141 629.084 516.141Z" fill="#32BEF0"/>
<path d="M642.724 494.091C645.292 494.091 647.373 492.005 647.373 489.432C647.373 486.859 645.292 484.774 642.724 484.774C640.156 484.774 638.074 486.859 638.074 489.432C638.074 492.005 640.156 494.091 642.724 494.091Z" fill="#32BEF0"/>
<path d="M577.626 452.475C580.194 452.475 582.276 450.39 582.276 447.817C582.276 445.244 580.194 443.158 577.626 443.158C575.058 443.158 572.976 445.244 572.976 447.817C572.976 450.39 575.058 452.475 577.626 452.475Z" fill="#32BEF0"/>
<path d="M521.208 528.873C523.776 528.873 525.858 526.788 525.858 524.215C525.858 521.642 523.776 519.557 521.208 519.557C518.64 519.557 516.558 521.642 516.558 524.215C516.558 526.788 518.64 528.873 521.208 528.873Z" fill="#32BEF0"/>
<path d="M470.37 558.687C472.938 558.687 475.02 556.602 475.02 554.029C475.02 551.456 472.938 549.371 470.37 549.371C467.802 549.371 465.72 551.456 465.72 554.029C465.72 556.602 467.802 558.687 470.37 558.687Z" fill="#32BEF0"/>
<path d="M497.029 572.973C499.597 572.973 501.679 570.888 501.679 568.315C501.679 565.742 499.597 563.656 497.029 563.656C494.461 563.656 492.379 565.742 492.379 568.315C492.379 570.888 494.461 572.973 497.029 572.973Z" fill="#32BEF0"/>
<path d="M459.21 607.135C461.778 607.135 463.86 605.05 463.86 602.477C463.86 599.904 461.778 597.818 459.21 597.818C456.642 597.818 454.56 599.904 454.56 602.477C454.56 605.05 456.642 607.135 459.21 607.135Z" fill="#32BEF0"/>
<path d="M550.967 347.505C553.535 347.505 555.617 345.419 555.617 342.847C555.617 340.274 553.535 338.188 550.967 338.188C548.399 338.188 546.317 340.274 546.317 342.847C546.317 345.419 548.399 347.505 550.967 347.505Z" fill="#32BEF0"/>
<path d="M584.446 242.535C587.014 242.535 589.096 240.449 589.096 237.877C589.096 235.304 587.014 233.218 584.446 233.218C581.878 233.218 579.796 235.304 579.796 237.877C579.796 240.449 581.878 242.535 584.446 242.535Z" fill="#32BEF0"/>
<path d="M388.532 209.926C391.1 209.926 393.182 207.84 393.182 205.268C393.182 202.695 391.1 200.609 388.532 200.609C385.964 200.609 383.882 202.695 383.882 205.268C383.882 207.84 385.964 209.926 388.532 209.926Z" fill="#32BEF0"/>
<path d="M550.967 513.967C553.535 513.967 555.617 511.881 555.617 509.308C555.617 506.735 553.535 504.65 550.967 504.65C548.399 504.65 546.317 506.735 546.317 509.308C546.317 511.881 548.399 513.967 550.967 513.967Z" fill="#32BEF0"/>
<path d="M559.337 535.395C561.905 535.395 563.987 533.31 563.987 530.737C563.987 528.164 561.905 526.078 559.337 526.078C556.769 526.078 554.687 528.164 554.687 530.737C554.687 533.31 556.769 535.395 559.337 535.395Z" fill="#32BEF0"/>
<path d="M538.877 470.798C541.445 470.798 543.527 468.713 543.527 466.14C543.527 463.567 541.445 461.482 538.877 461.482C536.309 461.482 534.228 463.567 534.228 466.14C534.228 468.713 536.309 470.798 538.877 470.798Z" fill="#32BEF0"/>
<path d="M578.556 127.316C581.124 127.316 583.206 125.231 583.206 122.658C583.206 120.085 581.124 118 578.556 118C575.988 118 573.906 120.085 573.906 122.658C573.906 125.231 575.988 127.316 578.556 127.316Z" fill="#32BEF0"/>
<path d="M547.867 411.17C550.435 411.17 552.517 409.085 552.517 406.512C552.517 403.939 550.435 401.854 547.867 401.854C545.299 401.854 543.217 403.939 543.217 406.512C543.217 409.085 545.299 411.17 547.867 411.17Z" fill="#32BEF0"/>
<path d="M607.695 401.543C610.263 401.543 612.345 399.457 612.345 396.885C612.345 394.312 610.263 392.226 607.695 392.226C605.127 392.226 603.045 394.312 603.045 396.885C603.045 399.457 605.127 401.543 607.695 401.543Z" fill="#32BEF0"/>
<path d="M495.169 518.936C497.737 518.936 499.819 516.85 499.819 514.277C499.819 511.704 497.737 509.619 495.169 509.619C492.601 509.619 490.519 511.704 490.519 514.277C490.519 516.85 492.601 518.936 495.169 518.936Z" fill="#32BEF0"/>
<path d="M428.521 575.458C431.089 575.458 433.171 573.372 433.171 570.799C433.171 568.227 431.089 566.141 428.521 566.141C425.953 566.141 423.872 568.227 423.872 570.799C423.872 573.372 425.953 575.458 428.521 575.458Z" fill="#32BEF0"/>
<path d="M369.623 582.911C372.191 582.911 374.273 580.826 374.273 578.253C374.273 575.68 372.191 573.595 369.623 573.595C367.055 573.595 364.973 575.68 364.973 578.253C364.973 580.826 367.055 582.911 369.623 582.911Z" fill="#32BEF0"/>
<path d="M322.505 637.881C325.073 637.881 327.155 635.795 327.155 633.223C327.155 630.65 325.073 628.564 322.505 628.564C319.937 628.564 317.855 630.65 317.855 633.223C317.855 635.795 319.937 637.881 322.505 637.881Z" fill="#32BEF0"/>
<path d="M530.198 551.855C532.766 551.855 534.848 549.77 534.848 547.197C534.848 544.624 532.766 542.538 530.198 542.538C527.63 542.538 525.548 544.624 525.548 547.197C525.548 549.77 527.63 551.855 530.198 551.855Z" fill="#32BEF0"/>
<path d="M461.69 329.182C464.258 329.182 466.34 327.096 466.34 324.524C466.34 321.951 464.258 319.865 461.69 319.865C459.122 319.865 457.04 321.951 457.04 324.524C457.04 327.096 459.122 329.182 461.69 329.182Z" fill="#32BEF0"/>
<path d="M502.918 208.063C505.486 208.063 507.568 205.977 507.568 203.404C507.568 200.831 505.486 198.746 502.918 198.746C500.35 198.746 498.269 200.831 498.269 203.404C498.269 205.977 500.35 208.063 502.918 208.063Z" fill="#32BEF0"/>
<path d="M652.644 513.967C655.212 513.967 657.294 511.881 657.294 509.308C657.294 506.735 655.212 504.65 652.644 504.65C650.076 504.65 647.994 506.735 647.994 509.308C647.994 511.881 650.076 513.967 652.644 513.967Z" fill="#32BEF0"/>
<path d="M479.979 473.593C482.547 473.593 484.629 471.508 484.629 468.935C484.629 466.362 482.547 464.276 479.979 464.276C477.411 464.276 475.33 466.362 475.33 468.935C475.33 471.508 477.411 473.593 479.979 473.593Z" fill="#32BEF0"/>
<path d="M302.355 404.338C304.923 404.338 307.005 402.252 307.005 399.68C307.005 397.107 304.923 395.021 302.355 395.021C299.787 395.021 297.706 397.107 297.706 399.68C297.706 402.252 299.787 404.338 302.355 404.338Z" fill="#32BEF0"/>
<path d="M165.65 476.078C168.218 476.078 170.3 473.992 170.3 471.42C170.3 468.847 168.218 466.761 165.65 466.761C163.082 466.761 161 468.847 161 471.42C161 473.992 163.082 476.078 165.65 476.078Z" fill="#32BEF0"/>
<path d="M260.507 279.181C263.075 279.181 265.157 277.096 265.157 274.523C265.157 271.95 263.075 269.865 260.507 269.865C257.939 269.865 255.857 271.95 255.857 274.523C255.857 277.096 257.939 279.181 260.507 279.181Z" fill="#32BEF0"/>
<path d="M384.812 524.526C387.38 524.526 389.462 522.44 389.462 519.867C389.462 517.294 387.38 515.209 384.812 515.209C382.244 515.209 380.163 517.294 380.163 519.867C380.163 522.44 382.244 524.526 384.812 524.526Z" fill="#32BEF0"/>
<path d="M436.581 431.978C439.149 431.978 441.23 429.893 441.23 427.32C441.23 424.747 439.149 422.661 436.581 422.661C434.012 422.661 431.931 424.747 431.931 427.32C431.931 429.893 434.012 431.978 436.581 431.978Z" fill="#32BEF0"/>
<path d="M284.996 526.7C287.564 526.7 289.646 524.614 289.646 522.041C289.646 519.468 287.564 517.383 284.996 517.383C282.428 517.383 280.346 519.468 280.346 522.041C280.346 524.614 282.428 526.7 284.996 526.7Z" fill="#32BEF0"/>
<path d="M619.475 530.116C619.475 530.116 619.475 529.805 619.165 529.805C617.925 527.631 615.135 527.01 612.965 528.252C610.795 529.495 610.175 532.29 611.415 534.464L611.725 534.774L619.475 530.116Z" fill="#32BEF0"/>
<path d="M568.946 559.309C567.706 558.687 566.156 558.688 564.917 559.619C563.677 560.24 563.057 561.483 562.747 563.035L568.946 559.309Z" fill="#32BEF0"/>
<path d="M1528.84 62.8572C1528.74 62.6539 1528.74 62.6539 1528.84 62.8572L1528.74 62.6539L1528.65 62.4507L1528.55 62.2475L1528.45 62.0442L1528.35 61.841C1528.35 61.841 1528.35 61.841 1528.26 61.6377L1528.16 61.4345C1528.06 61.2313 1527.97 61.028 1527.87 60.8248L1527.77 60.6216L1527.87 60.8248C1527.77 60.6216 1527.77 60.6216 1527.68 60.4183L1527.58 60.2151L1527.48 60.0118L1527.38 59.8086L1527.48 60.0118L1527.38 59.8086C1527.19 59.4021 1526.79 59.0927 1526.6 58.6863L1526.5 58.483L1526.6 58.6863L1526.5 58.483C1526.4 58.2798 1526.31 58.0765 1526.01 57.9704L1525.91 57.7671L1526.01 57.9704C1526.01 57.9704 1526.01 57.9704 1525.91 57.7671C1525.91 57.7671 1525.91 57.7671 1525.81 57.5639C1525.32 57.0512 1525.22 56.848 1524.82 56.5386C1524.82 56.5386 1524.82 56.5386 1524.73 56.3354L1524.63 56.1321L1524.53 55.9289C1524.44 55.7257 1524.04 55.4162 1523.94 55.213C1523.84 55.0098 1523.45 54.7004 1523.25 54.2939C1520.79 51.2271 1517.82 48.1512 1514.46 44.7659C1509.21 39.5333 1503.27 33.8851 1497.71 29.5533C1493.53 26.5563 1490.95 24.7969 1488.46 23.2407C1488.15 23.1345 1488.15 23.1345 1487.85 23.0284C1487.55 22.9222 1487.46 22.719 1487.16 22.6128C1487.16 22.6128 1487.16 22.6128 1487.06 22.4095C1487.06 22.4095 1487.06 22.4095 1486.96 22.2063C1486.96 22.2063 1486.96 22.2063 1486.87 22.0031L1486.36 21.994C1486.36 21.994 1486.46 22.1972 1486.66 22.1001L1486.26 21.7907L1485.87 21.4813C1485.87 21.4813 1485.77 21.2781 1485.57 21.3751C1485.57 21.3751 1485.57 21.3751 1485.47 21.1719L1485.17 21.0657L1485.47 21.1719L1485.17 21.0657C1485.17 21.0657 1485.17 21.0657 1484.87 20.9596L1484.57 20.8534C1484.57 20.8534 1484.57 20.8534 1484.27 20.7472C1483.36 20.9322 1483.36 20.9322 1483.06 20.8261L1482.86 20.9231C1482.86 20.9231 1482.65 21.0202 1482.56 20.8169C1481.65 20.4984 1480.95 20.5864 1480.24 20.6743C1479.74 20.6652 1479.33 20.8593 1479.13 20.9564C1478.53 20.7441 1478.32 20.8411 1477.92 21.0352C1477.92 21.0352 1477.92 21.0352 1477.71 21.1323C1477.71 21.1323 1477.71 21.1323 1477.51 21.2294L1476.7 21.6176L1476.49 21.7147C1476.49 21.7147 1476.49 21.7147 1476.29 21.8118C1476.29 21.8118 1476.29 21.8118 1476.49 21.7147C1476.49 21.7147 1476.49 21.7147 1476.29 21.8118C1476.29 21.8118 1476.29 21.8118 1476.09 21.9088C1476.09 21.9088 1476.09 21.9088 1475.88 22.0059L1475.68 22.1029C1475.68 22.1029 1475.68 22.1029 1475.48 22.2C1474.66 23.0918 1473.83 23.9836 1472.81 24.9724L1468.49 30.032C1466.84 31.8156 1465.2 33.5991 1463.66 35.0824L1461.81 36.963C1461.81 36.963 1461.81 36.963 1461.91 37.1663C1461.91 37.1663 1461.91 37.1663 1462.01 37.3695C1462.01 37.3695 1462.01 37.3695 1462.1 37.5728C1462.1 37.5728 1462.1 37.5728 1462.2 37.776C1462.2 37.776 1462.2 37.776 1462.3 37.9792C1462.4 38.1825 1462.85 40.7093 1462.85 40.7093C1462.85 40.7093 1462.85 40.7093 1462.95 40.9125C1462.95 40.9125 1462.95 40.9125 1463.05 41.1157C1463.05 41.1157 1463.05 41.1157 1463.14 41.319C1463.14 41.319 1463.14 41.319 1463.24 41.5222C1463.24 41.5222 1463.24 41.5222 1463.34 41.7254C1463.34 41.7254 1463.34 41.7254 1463.44 41.9287C1463.44 41.9287 1463.44 41.9287 1463.53 42.1319C1463.53 42.1319 1463.53 42.1319 1463.63 42.3352C1463.63 42.3352 1463.63 42.3352 1463.73 42.5384C1463.73 42.5384 1463.73 42.5384 1463.82 42.7416C1463.82 42.7416 1463.82 42.7416 1463.92 42.9449C1463.92 42.9449 1463.92 42.9449 1464.02 43.1481C1464.02 43.1481 1464.02 43.1481 1464.11 43.3513C1464.11 43.3513 1464.11 43.3513 1464.21 43.5546C1464.31 43.7578 1464.21 43.5546 1464.31 43.7578C1464.31 43.7578 1464.31 43.7578 1464.41 43.961C1464.41 43.961 1464.41 43.961 1464.5 44.1643C1464.5 44.1643 1464.5 44.1643 1464.6 44.3675C1464.6 44.3675 1464.6 44.3675 1464.7 44.5708C1464.7 44.5708 1464.7 44.5708 1464.79 44.774C1464.79 44.774 1464.79 44.774 1464.89 44.9772C1464.99 45.1805 1464.89 44.9772 1464.99 45.1805C1464.99 45.1805 1464.99 45.1805 1465.09 45.3837C1465.09 45.3837 1465.09 45.3837 1465.18 45.5869C1465.18 45.5869 1465.18 45.5869 1465.28 45.7902C1465.28 45.7902 1465.28 45.7902 1465.38 45.9934C1465.38 45.9934 1465.38 45.9934 1465.47 46.1967C1465.47 46.1967 1465.47 46.1967 1465.57 46.3999C1465.57 46.3999 1465.57 46.3999 1465.67 46.6031C1465.67 46.6031 1465.67 46.6031 1465.77 46.8064C1465.77 46.8064 1465.77 46.8064 1465.86 47.0096C1465.86 47.0096 1465.86 47.0096 1465.96 47.2128C1465.96 47.2128 1465.96 47.2128 1466.06 47.4161C1466.06 47.4161 1466.06 47.4161 1466.15 47.6193C1466.15 47.6193 1466.15 47.6193 1466.25 47.8225L1466.35 48.0258L1466.44 48.229L1466.54 48.4323L1466.64 48.6355L1466.74 48.8387L1466.83 49.042L1466.93 49.2452L1467.03 49.4484L1467.12 49.6517C1467.12 49.6517 1467.12 49.6517 1467.22 49.8549L1467.32 50.0582L1467.42 50.2614L1467.51 50.4646L1467.61 50.6679L1467.71 50.8711L1467.8 51.0743L1467.9 51.2776L1468 51.4808L1468.09 51.684L1468.19 51.8873L1468.29 52.0905C1468.29 52.0905 1468.29 52.0905 1468.39 52.2938L1468.48 52.497L1468.58 52.7002L1468.68 52.9035L1468.77 53.1067L1468.87 53.3099L1468.97 53.5132L1469.07 53.7164L1469.16 53.9196L1469.26 54.1229L1469.36 54.3261L1469.45 54.5294L1469.55 54.7326L1469.65 54.9358L1469.74 55.1391C1469.84 55.3423 1469.84 55.3423 1469.94 55.5455C1470.04 55.7488 1470.04 55.7488 1470.13 55.952C1470.23 56.1553 1470.23 56.1553 1470.33 56.3585C1470.42 56.5617 1470.42 56.5617 1470.72 56.6679C1470.72 56.6679 1470.72 56.6679 1470.82 56.8711L1470.92 57.0744C1471.02 57.2776 1471.02 57.2776 1471.32 57.3838C1471.41 57.587 1471.41 57.587 1471.71 57.6932C1471.81 57.8964 1471.81 57.8964 1472.11 58.0026C1472.21 58.2058 1472.21 58.2058 1472.51 58.312C1472.61 58.5153 1472.61 58.5153 1472.91 58.6214C1473 58.8247 1473 58.8247 1473.3 58.9308C1473.4 59.1341 1473.7 59.2402 1473.8 59.4435C1473.89 59.6467 1474.19 59.7529 1474.29 59.9561C1474.39 60.1594 1474.69 60.2655 1474.79 60.4688C1474.88 60.672 1475.28 60.9814 1475.38 61.1847C1475.77 61.4941 1475.97 61.9005 1476.37 62.21C1476.46 62.4132 1476.76 62.5194 1476.86 62.7226C1477.75 63.5447 1478.64 64.3667 1479.63 65.392C1479.73 65.5952 1480.03 65.7014 1480.03 65.7014C1480.03 65.7014 1480.13 65.9047 1480.33 65.8076L1480.43 66.0108C1480.52 66.2141 1480.92 66.5235 1481.02 66.7267C1481.12 66.93 1481.51 67.2394 1481.61 67.4426C1481.71 67.6458 1482.11 67.9552 1482.41 68.0614C1482.5 68.2647 1482.5 68.2647 1482.8 68.3708L1482.9 68.5741C1483 68.7773 1483.3 68.8835 1483.39 69.0867C1483.49 69.29 1483.79 69.3961 1483.89 69.5994C1483.99 69.8026 1484.29 69.9088 1484.38 70.112C1484.48 70.3152 1484.78 70.4214 1484.88 70.6247C1484.97 70.8279 1485.18 70.7308 1485.28 70.9341L1485.37 71.1373L1485.47 71.3405C1485.57 71.5438 1485.77 71.4467 1485.87 71.6499C1485.96 71.8532 1486.17 71.7561 1486.26 71.9594C1486.36 72.1626 1486.56 72.0655 1486.66 72.2688C1486.76 72.472 1486.96 72.3749 1487.06 72.5782C1488.45 68.1707 1488.55 68.374 1488.75 68.2769C1488.85 68.4802 1488.85 68.4802 1489.15 68.5863C1489.24 68.7896 1489.24 68.7896 1489.54 68.8957C1489.54 68.8957 1489.64 69.099 1489.84 69.0019C1489.94 69.2052 1489.94 69.2052 1490.24 69.3113C1490.34 69.5146 1490.34 69.5146 1490.64 69.6207C1490.74 69.824 1490.74 69.824 1491.04 69.9301C1491.04 69.9301 1491.13 70.1334 1491.34 70.0363C1491.34 70.0363 1491.43 70.2396 1491.64 70.1425C1491.64 70.1425 1491.73 70.3457 1491.94 70.2487C1491.94 70.2487 1492.03 70.4519 1492.24 70.3548C1492.24 70.3548 1492.33 70.5581 1492.54 70.461C1492.54 70.461 1492.63 70.6643 1492.84 70.5672C1492.84 70.5672 1492.93 70.7704 1493.14 70.6734L1493.23 70.8766C1493.23 70.8766 1493.33 71.0798 1493.53 70.9828C1493.53 70.9828 1493.63 71.186 1493.84 71.089C1493.84 71.089 1493.93 71.2922 1494.14 71.1951C1494.14 71.1951 1494.23 71.3984 1494.44 71.3013C1494.44 71.3013 1494.53 71.5045 1494.74 71.4075C1494.74 71.4075 1494.83 71.6107 1495.04 71.5136C1495.04 71.5136 1495.13 71.7169 1495.34 71.6198C1495.34 71.6198 1495.43 71.8231 1495.64 71.726C1495.84 71.6289 1495.73 71.9292 1495.94 71.8322C1495.94 71.8322 1496.03 72.0354 1496.24 71.9383C1496.24 71.9383 1496.33 72.1416 1496.54 72.0445L1496.63 72.2477L1496.73 72.451L1496.83 72.6542L1496.93 72.8575L1497.02 73.0607L1497.12 73.2639L1497.22 73.4672L1497.31 73.6704L1497.41 73.8736L1497.51 74.0769C1497.51 74.0769 1497.51 74.0769 1497.61 74.2801L1497.7 74.4834L1497.8 74.6866C1497.8 74.6866 1497.8 74.6866 1497.9 74.8898L1497.99 75.0931L1498.09 75.2963L1498.19 75.4995L1498.29 75.7028L1498.38 75.906L1498.48 76.1092L1498.58 76.3125L1498.67 76.5157L1498.77 76.719L1498.87 76.9222L1498.96 77.1254L1499.06 77.3287C1499.06 77.3287 1499.06 77.3287 1499.16 77.5319L1499.26 77.7351L1499.35 77.9384L1499.45 78.1416L1499.55 78.3448L1499.64 78.5481C1499.64 78.5481 1499.64 78.5481 1499.74 78.7513L1499.84 78.9546L1499.94 79.1578L1500.03 79.361L1500.13 79.5643L1500.23 79.7675L1500.32 79.9707L1500.42 80.174L1500.52 80.3772L1500.61 80.5805L1500.71 80.7837L1500.81 80.9869L1500.91 81.1902L1501 81.3934L1501.1 81.5966L1501.2 81.7999L1501.29 82.0031L1501.39 82.2063C1501.39 82.2063 1501.39 82.2063 1501.49 82.4096L1501.59 82.6128L1501.68 82.8161L1501.78 83.0193L1501.88 83.2225L1501.97 83.4258L1502.07 83.629L1502.17 83.8322L1502.26 84.0355L1502.36 84.2387L1502.46 84.4419L1502.56 84.6452L1502.65 84.8484L1502.75 85.0517L1502.85 85.2549L1502.94 85.4581L1503.04 85.6614L1503.14 85.8646C1503.14 85.8646 1503.14 85.8646 1503.24 86.0678L1503.33 86.2711C1503.33 86.2711 1503.43 86.4743 1503.63 86.3773L1503.73 86.5805L1503.83 86.7837L1503.92 86.987L1504.02 87.1902L1504.12 87.3934C1504.12 87.3934 1504.12 87.3934 1504.21 87.5967C1504.21 87.5967 1504.31 87.7999 1504.52 87.7028C1504.52 87.7028 1504.61 87.9061 1504.82 87.809C1504.82 87.809 1504.91 88.0123 1505.12 87.9152C1505.12 87.9152 1505.21 88.1184 1505.42 88.0214C1505.42 88.0214 1505.51 88.2246 1505.72 88.1275C1505.72 88.1275 1505.81 88.3308 1506.02 88.2337C1506.02 88.2337 1506.11 88.437 1506.32 88.3399C1506.32 88.3399 1506.32 88.3399 1506.41 88.5431C1506.41 88.5431 1506.51 88.7464 1506.71 88.6493C1506.71 88.6493 1506.81 88.8525 1507.01 88.7555L1507.32 88.8617C1507.32 88.8617 1507.32 88.8617 1507.41 89.0649L1507.71 89.1711C1508.01 89.2772 1508.01 89.2772 1508.31 89.3834L1508.61 89.4896C1508.82 89.3925 1508.82 89.3925 1509.12 89.4987L1509.32 89.4016C1509.94 88.6069 1510.76 87.7151 1511.68 87.0266L1513.84 84.7486C1516.82 81.5788 1520 78.3119 1522.67 75.5395C1522.87 75.4424 1522.98 75.1421 1522.98 75.1421L1523.18 75.0451L1523.38 74.948C1523.38 74.948 1523.59 74.8509 1523.49 74.6477L1523.6 74.3474L1523.7 74.0471C1523.81 73.7468 1523.81 73.7468 1524.01 73.6497C1524.12 73.3494 1524.12 73.3494 1524.12 73.3494C1524.02 73.1462 1524.22 73.0491 1524.13 72.8459C1524.03 72.6427 1524.23 72.5456 1524.23 72.5456C1524.14 72.3424 1524.34 72.2453 1524.24 72.0421C1524.24 72.0421 1524.24 72.0421 1524.14 71.8388L1524.05 71.6356L1523.95 71.4323C1523.95 71.4323 1523.85 71.2291 1524.06 71.1321L1523.96 70.9288C1523.96 70.9288 1523.96 70.9288 1523.86 70.7256C1523.86 70.7256 1523.86 70.7256 1523.77 70.5223C1523.67 70.3191 1523.57 70.1159 1523.68 69.8156L1523.58 69.6123C1523.48 69.4091 1523.48 69.4091 1523.39 69.2059L1523.29 69.0026C1523.29 69.0026 1523.29 69.0026 1523.19 68.7994L1523.09 68.5961L1528.84 62.8572C1528.94 63.0604 1528.94 63.0604 1528.84 62.8572Z" fill="#31B9E9"/>
<g clip-path="url(#clip0_2667_82)">
<path d="M178.035 152.944L382.867 448.9C386.606 454.3 394.085 456.169 400.109 453.053L516.444 395.108C522.676 391.993 525.585 384.932 523.507 378.493L402.187 41.2072L178.035 152.944Z" fill="#E7A6DB"/>
<path d="M443.943 148.375C442.696 144.636 441.035 139.652 439.788 135.913C444.151 148.79 448.513 161.667 452.876 174.336C449.967 165.613 446.851 157.097 443.943 148.375Z" fill="#591233"/>
<path d="M493.593 295.003C492.97 293.341 492.139 290.433 490.269 284.41L494.008 295.833C494.008 296.041 494.008 296.249 494.008 296.456C493.801 296.041 493.801 295.418 493.593 295.003Z" fill="#591233"/>
<path d="M512.912 397.185C512.705 395.316 512.497 392.824 512.082 390.955C513.12 393.032 514.367 395.939 515.405 398.016C514.574 398.431 513.951 398.847 513.12 399.47C513.12 398.847 512.912 397.808 512.912 397.185Z" fill="#591233"/>
<path d="M454.953 372.055C447.475 342.979 457.031 320.341 468.456 308.71C455.576 279.634 454.953 261.149 454.538 247.442C454.33 242.873 456.2 231.658 456.2 231.658C458.277 223.35 466.794 217.742 464.302 207.773C469.08 221.896 473.858 236.019 478.636 249.934C474.689 238.719 474.273 238.719 472.196 237.888C462.432 246.611 475.935 284.41 480.505 296.872C482.998 290.849 488.399 284.41 498.579 309.333C499.202 310.995 500.241 313.487 500.864 315.148C509.381 340.071 517.691 365.201 526.208 390.124C526.208 390.124 526.208 390.332 526.208 390.539C526 390.332 526 389.916 525.793 389.708C525.793 389.916 526 390.332 526.208 390.747C525.793 391.37 524.338 392.616 521.638 394.278C514.367 384.309 504.603 376.624 497.54 366.655C492.554 359.801 486.53 351.078 482.998 339.656C457.031 377.039 487.776 408.193 491.515 411.516C486.737 414.008 481.752 416.708 476.766 419.2C464.302 397.808 457.862 383.685 454.953 372.055Z" fill="#591233"/>
<path d="M263.416 113.691C262.585 118.467 261.754 122.206 256.976 124.49C251.991 126.775 247.005 127.19 238.28 125.529C246.174 121.79 254.691 117.844 263.416 113.691Z" fill="#591233"/>
<path d="M205.041 156.682C204.418 150.036 204.002 148.167 202.133 141.105C205.041 139.859 208.365 138.613 211.689 137.159C215.013 135.705 218.544 134.252 222.076 132.59C222.491 138.821 221.245 144.428 218.337 148.79C215.22 153.359 215.22 153.359 205.249 157.928C205.249 157.72 205.041 157.097 205.041 156.682Z" fill="#591233"/>
<path d="M175.75 149.621C175.958 149.828 176.165 149.828 176.581 149.828C178.243 152.113 180.32 155.436 181.982 157.72C181.982 157.305 181.774 156.89 181.774 156.682C182.19 156.267 182.605 155.851 183.021 155.436C184.891 155.644 190.084 156.267 208.157 167.066C221.245 174.959 233.502 178.697 244.512 178.074C266.74 177.035 267.779 162.082 268.61 151.074C289.176 183.682 261.754 201.335 252.822 207.15C270.064 216.081 280.243 228.335 285.645 234.981C285.021 235.396 284.398 235.811 283.775 236.434C284.19 237.057 284.814 237.888 285.229 238.719C281.698 241.211 273.596 247.234 258.223 241.211C270.895 259.072 288.345 283.58 283.775 299.156C270.687 269.041 244.304 249.726 225.815 223.973C215.428 208.396 205.041 192.82 194.654 177.451C188.838 169.143 181.359 157.928 175.75 149.621Z" fill="#591233"/>
<path d="M241.396 247.65C239.734 245.157 238.28 242.873 236.618 240.38C244.096 251.18 244.096 251.18 262.17 278.803C255.314 268.418 248.251 258.034 241.396 247.65Z" fill="#591233"/>
<path d="M270.688 291.264C275.673 298.533 281.282 305.387 286.06 312.656C289.176 317.225 291.669 322.002 294.37 326.779C286.683 314.941 278.582 303.102 270.688 291.264Z" fill="#591233"/>
<path d="M302.264 338.409C304.964 342.356 307.665 346.509 310.366 350.455L302.264 338.409Z" fill="#591233"/>
<path d="M418.806 444.954C417.975 437.892 415.482 430.208 411.12 422.523C418.598 426.677 420.468 428.339 428.154 435.608L432.309 441.008C427.739 443.084 423.376 445.161 419.014 447.031C418.806 446.407 418.806 445.577 418.806 444.954ZM334.464 382.439C330.101 375.17 329.686 372.47 329.478 370.809C332.178 369.978 332.178 369.978 337.787 372.47C323.453 352.74 324.284 348.586 324.908 345.263C325.738 344.848 325.738 344.848 352.952 354.401C346.928 340.694 344.227 323.248 365.001 317.641C363.963 353.571 386.814 363.332 391.384 364.994C406.342 370.186 439.996 361.463 409.042 303.725C399.902 314.525 384.529 315.356 363.963 306.218C345.682 298.326 303.926 283.58 311.612 318.887C291.461 288.98 301.848 280.257 317.637 266.757C295.201 254.919 284.814 237.681 284.19 236.227C289.176 232.696 300.394 227.088 319.299 230.411C304.133 209.02 287.099 184.928 310.989 162.497C301.641 227.088 393.462 209.85 412.366 258.657C445.397 222.312 416.105 190.535 410.081 184.512C397.409 172.051 373.103 170.805 371.857 212.343C360.639 196.766 349.005 180.774 362.716 156.682C335.087 153.567 308.496 143.39 339.865 111.406C321.168 103.722 321.999 93.1294 322.622 85.2372L323.038 84.4065C330.932 80.2527 338.826 76.3066 346.097 72.3606C348.174 72.7759 351.083 72.9836 353.16 72.9836C353.16 72.1529 352.952 70.9067 352.745 70.076V68.6222C360.639 64.4684 367.91 60.5223 374.557 56.7839C376.427 55.7455 378.089 54.9147 380.166 54.2917C383.906 58.8608 386.399 61.7684 390.346 70.9067C391.177 67.5837 392.423 63.4299 396.37 61.3531C413.82 51.7994 437.918 115.352 433.14 135.082C430.024 136.744 428.778 137.575 419.637 132.175C420.884 130.306 422.338 128.021 422.545 121.79C422.545 120.752 422.545 119.09 422.545 118.052C421.714 96.4524 407.796 80.2527 398.863 90.6371C387.853 103.098 401.356 127.398 406.342 136.536C430.232 179.943 470.118 252.426 428.57 288.357C467.625 364.578 421.714 389.501 399.486 401.339C362.508 421.277 401.979 448.069 406.549 450.977L408.004 451.807C407.38 452.015 406.549 452.43 405.926 452.638C401.771 454.3 398.448 455.753 395.331 457C388.476 448.484 386.399 444.538 384.113 439.761C381.828 442.254 374.35 448.692 334.464 382.439Z" fill="#591233"/>
<path d="M292.232 101.534C354.144 70.6723 403.338 43.6567 402.109 41.1931C400.88 38.7296 349.695 61.751 287.782 92.6129C225.87 123.475 176.677 150.49 177.905 152.954C179.134 155.417 230.32 132.396 292.232 101.534Z" fill="#591233"/>
<path d="M262.585 115.767L248.044 123.037L213.974 79.0066L198.601 82.9527L197.563 68.8299L188.214 76.5143L181.151 64.2607L60.8697 80.2527L59 66.9607L189.461 49.0995L194.031 62.3915L205.665 53.2532L207.327 65.7145L219.583 61.9761L262.585 115.767Z" fill="#32BEF0"/>
</g>
<path d="M1552.91 331.952C1562.7 286.849 1612.94 190.631 1612.94 190.631C1612.91 190.808 1570.92 166.863 1571.06 166.616C1571.06 166.616 1513.15 258.416 1479.03 289.623C1444.91 320.83 1394.21 361.287 1366.83 412.946C1343.82 456.372 1304.74 536.523 1292.99 560.767C1291.05 564.796 1292.55 569.616 1296.5 571.896L1400.82 631.578C1404.7 633.752 1409.64 632.637 1412.25 628.929C1427.32 606.468 1476.96 532.339 1503 490.729C1533.63 441.206 1543.11 377.055 1552.91 331.952Z" fill="#004724"/>
<path d="M1569.08 165.936L1569.33 166.078C1569.51 166.114 1569.58 166.221 1569.72 166.434L1613.93 191.661C1614.11 191.697 1614.28 191.733 1614.35 191.839L1614.6 191.982C1615.52 192.445 1616.69 192.131 1617.23 191.319L1620.53 185.631C1620.99 184.712 1620.68 183.543 1619.87 183.009L1619.62 182.866C1618.7 182.403 1618.39 181.233 1618.97 180.244L1619.15 179.82C1619.61 178.901 1620.79 178.587 1621.77 179.157L1622.02 179.299C1622.94 179.763 1624.11 179.449 1624.65 178.636L1627.95 172.948C1628.41 172.03 1628.1 170.86 1627.29 170.326L1627.04 170.184C1626.12 169.72 1625.81 168.551 1626.39 167.561L1626.67 167.067C1627.14 166.148 1626.83 164.979 1626.02 164.445L1587.59 142.425C1586.68 141.961 1585.5 142.276 1584.97 143.088L1584.68 143.583C1584.21 144.501 1583.04 144.816 1582.05 144.246L1581.81 144.103C1580.89 143.64 1579.72 143.954 1579.18 144.766L1575.88 150.454C1575.41 151.373 1575.73 152.542 1576.54 153.076L1576.78 153.219C1577.7 153.682 1578.01 154.852 1577.44 155.841L1577.26 156.265C1576.79 157.184 1575.62 157.498 1574.63 156.928L1574.35 156.963C1573.43 156.499 1572.26 156.813 1571.72 157.626L1568.43 163.313C1567.85 164.303 1568.16 165.472 1569.08 165.936Z" fill="#004724"/>
<path d="M1309.38 526.132C1307.08 530.549 1304.43 534.894 1302.14 539.311C1303.75 535.953 1305.98 531.43 1307.67 528.179C1309.93 523.479 1312.44 518.461 1314.96 513.443C1317.33 508.672 1320.49 502.311 1322.86 497.54C1324.01 495.102 1325.33 492.699 1326.48 490.26C1312.86 519.56 1312.86 519.56 1309.38 526.132Z" fill="#32BEF0"/>
<path d="M1439.2 331.466C1418.2 350.046 1383.02 381.037 1353.67 435.981C1354.1 435.239 1354.46 434.391 1354.89 433.649C1357.33 428.985 1359.66 424.391 1361.89 420.327C1364.47 415.416 1367.3 410.647 1370.31 405.914C1373.32 401.181 1376.47 396.661 1379.79 392.177C1383.12 387.693 1386.62 383.245 1390.26 379.01C1393.84 374.668 1397.55 370.54 1401.33 366.518C1405.11 362.495 1408.9 358.473 1412.75 354.558C1416.6 350.642 1420.53 346.833 1424.42 343.201C1428.3 339.568 1432.19 335.936 1435.97 332.374C1439.82 328.919 1443.67 325.463 1447.31 322.149C1450.59 319.222 1454.9 315.308 1458.18 312.382C1461.25 309.596 1465.31 306 1468.38 303.214C1468.38 303.214 1468.38 303.214 1468.56 303.251C1447.54 324.132 1447.54 324.132 1439.2 331.466Z" fill="#32BEF0"/>
<path d="M1480.2 524.704C1476.98 529.577 1473.83 534.558 1470.46 539.679C1467.1 544.8 1463.73 549.921 1460.37 555.042C1457 560.163 1453.64 565.284 1450.27 570.406C1446.91 575.527 1443.68 580.4 1440.5 585.097C1437.38 589.901 1434.31 594.527 1431.37 598.907C1429.9 601.096 1428.44 603.286 1427.08 605.405C1433.85 594.065 1434.71 592.582 1441.72 582.765C1436.77 575.95 1453.42 549.388 1463.57 548.044C1468.68 540.699 1470.87 531.927 1475.88 524.652C1478.63 520.697 1483.8 515.76 1486.39 515.274C1484.39 518.276 1482.35 521.454 1480.2 524.704Z" fill="#32BEF0"/>
<path d="M1536.09 389.633C1535.02 394.763 1533.79 399.856 1532.62 405.056C1531.34 410.326 1530.07 415.597 1528.62 420.831C1527.24 426.172 1525.68 431.477 1524.12 436.782C1522.45 442.157 1520.72 447.425 1518.81 452.658C1517.04 457.643 1515.09 462.593 1513.07 467.436C1506.44 478.528 1496.15 486.845 1489.41 498.008C1489.67 496.77 1491.93 486.263 1499.86 472.025C1505.6 461.673 1513.88 452.852 1519.93 442.749C1519.79 442.536 1511.16 423.635 1515.83 418.873C1515.77 418.306 1515.77 417.386 1515.71 416.819C1517.95 414.42 1523.17 408.845 1529.84 406.427C1531.98 394.787 1531.03 382.888 1533.26 371.178C1534.58 364.35 1537.76 355.227 1540.89 349.043C1538.05 360.539 1538.82 372.402 1537.43 384.009L1536.09 389.633Z" fill="#32BEF0"/>
<path d="M1507.56 334.052C1501.69 341.89 1497.11 343.537 1487.16 347.041C1496.64 333.764 1497.65 326.227 1498.32 320.742L1498.22 320.352C1502.49 322.882 1506.87 325.34 1511.25 327.799C1510.39 329.743 1508.92 332.393 1507.56 334.052ZM1515.55 418.907C1511.55 423.07 1502.58 429.445 1488.12 424.471C1496.27 467.516 1479.81 481.121 1469.25 485.331C1488.46 453.574 1460.51 433.964 1442.07 425.046C1422.78 415.771 1414.6 403.137 1417.53 387.606C1377.66 408.702 1380.11 431.227 1383.1 439.947C1389.91 460.046 1416.43 470.516 1435.04 432.278C1441.21 453.719 1441.16 466.429 1423.91 481.164C1435.72 485.137 1471.62 497.058 1425.96 526.558C1427.05 527.518 1428.64 528.763 1429.48 530.041C1429.76 530.467 1443.26 569.53 1399.19 559.633C1396.77 567.342 1394.12 571.227 1392.23 573.238C1383.06 583.259 1364.61 579.226 1361.19 555.671C1345.48 572.288 1317.68 558.237 1314.06 547.639C1311.07 538.919 1324.7 487.315 1352.45 498.038C1340.59 507.235 1335 521.305 1334.05 525.443C1331.54 536.267 1346.72 545.811 1359 537.713C1376.09 526.447 1373.54 508.878 1372.25 500.412C1364.1 444.834 1357.15 396.873 1420.42 364.322C1426.82 343.599 1447.99 325.975 1462 314.449C1462 314.449 1466.52 311.315 1473.64 306.314C1475.37 307.311 1477.52 308.488 1480.07 310.019C1481.13 310.696 1482.29 311.302 1483.46 311.908C1470.18 314.55 1449.09 330.9 1445.62 353.51C1465.92 342.715 1479.19 351.685 1483.53 354.781C1514.98 376.209 1524.27 354.045 1528.69 343.334C1528.84 370.737 1517.51 379.581 1503.11 390.752C1516.05 402.234 1515.66 418.837 1515.55 418.907Z" fill="#32BEF0"/>
<path d="M1468.38 303.214C1470.41 301.416 1472.52 299.264 1474.73 297.042C1470.16 301.734 1469.48 302.333 1468.56 303.251C1468.45 303.321 1468.38 303.214 1468.38 303.214Z" fill="#32BEF0"/>
<path d="M1524.33 234.242C1521.36 238.338 1518.43 242.257 1515.46 246.352C1528.41 228.344 1540.08 210.721 1547.6 199.349C1532.7 222.306 1531.84 223.79 1524.33 234.242Z" fill="#32BEF0"/>
<path d="M1590.36 235.616C1586.19 244.168 1581.13 254.381 1576.06 265.515C1570.99 276.648 1565.7 288.383 1560.91 299.942C1555.62 312.597 1551.04 324.936 1547.88 335.722C1547.56 331.048 1549.87 323.869 1550.6 321.712C1551.1 320.156 1551.93 317.929 1552.62 316.409C1555.29 309.303 1559.47 302.875 1562.21 295.875C1564.23 290.572 1564.59 284.838 1566.79 279.571C1575.35 259.564 1580.38 254.874 1580.95 254.805C1581.83 255.446 1582.17 252.473 1582.56 251.448C1586.73 242.436 1588.99 238.196 1593.12 230.28L1590.36 235.616Z" fill="#32BEF0"/>
<path d="M1544.73 285.863C1541.74 304.793 1532.01 335.345 1515.62 315.601C1514.93 318.502 1514.93 318.502 1512.94 324.088L1511.36 327.729C1506.98 325.27 1502.53 322.705 1498.15 319.786C1497.43 316.137 1496.54 311.531 1488.21 310.757C1486.76 311.106 1484.84 311.453 1483.49 311.731C1482.33 311.125 1481.2 310.342 1480.1 309.842C1477.56 308.311 1475.41 307.135 1473.89 305.996C1552.73 255.694 1552.22 230.52 1550.24 224.034C1546.42 211.735 1527.42 244.272 1521.59 257.739C1521.45 257.526 1521.21 257.384 1521.03 257.348C1516.49 252.092 1526.51 236.622 1533.85 225.213C1550.75 199.254 1588.46 145.827 1591.89 146.158C1593.16 158.766 1562.4 218.308 1560.63 222.833C1560.88 222.515 1583.68 188.541 1587.83 193.442C1591.98 198.343 1564.43 244.16 1564.28 245.327C1571.58 250.594 1570.63 260.078 1564.28 272.517C1557.92 284.955 1544.73 285.863 1544.73 285.863Z" fill="#32BEF0"/>
<defs>
<clipPath id="clip0_2667_82">
<rect width="467" height="416" fill="white" transform="translate(59 40.9996)"/>
</clipPath>
</defs>
</svg>
